<svg id="visual" viewBox="0 0 900 600" width="900" height="600" xmlns="http://www.w3.org/2000/svg" xmlns:xlink="http://www.w3.org/1999/xlink" version="1.1"><path d="M0 67L25 71C50 75 100 83 150 77C200 71 250 51 300 40C350 29 400 27 450 27C500 27 550 29 600 32C650 35 700 39 750 48C800 57 850 71 875 78L900 85L900 0L875 0C850 0 800 0 750 0C700 0 650 0 600 0C550 0 500 0 450 0C400 0 350 0 300 0C250 0 200 0 150 0C100 0 50 0 25 0L0 0Z" fill="#eeeeee"></path><path d="M0 109L25 110C50 111 100 113 150 119C200 125 250 135 300 125C350 115 400 85 450 70C500 55 550 55 600 57C650 59 700 63 750 81C800 99 850 131 875 147L900 163L900 83L875 76C850 69 800 55 750 46C700 37 650 33 600 30C550 27 500 25 450 25C400 25 350 27 300 38C250 49 200 69 150 75C100 81 50 73 25 69L0 65Z" fill="#fafafa"></path><path d="M0 277L25 274C50 271 100 265 150 269C200 273 250 287 300 290C350 293 400 285 450 273C500 261 550 245 600 228C650 211 700 193 750 203C800 213 850 251 875 270L900 289L900 161L875 145C850 129 800 97 750 79C700 61 650 57 600 55C550 53 500 53 450 68C400 83 350 113 300 123C250 133 200 123 150 117C100 111 50 109 25 108L0 107Z" fill="#ffffff"></path><path d="M0 349L25 351C50 353 100 357 150 367C200 377 250 393 300 406C350 419 400 429 450 443C500 457 550 475 600 471C650 467 700 441 750 432C800 423 850 431 875 435L900 439L900 287L875 268C850 249 800 211 750 201C700 191 650 209 600 226C550 243 500 259 450 271C400 283 350 291 300 288C250 285 200 271 150 267C100 263 50 269 25 272L0 275Z" fill="#ffffff"></path><path d="M0 397L25 401C50 405 100 413 150 420C200 427 250 433 300 442C350 451 400 463 450 474C500 485 550 495 600 490C650 485 700 465 750 457C800 449 850 453 875 455L900 457L900 437L875 433C850 429 800 421 750 430C700 439 650 465 600 469C550 473 500 455 450 441C400 427 350 417 300 404C250 391 200 375 150 365C100 355 50 351 25 349L0 347Z" fill="#ffffff"></path><path d="M0 445L25 448C50 451 100 457 150 458C200 459 250 455 300 470C350 485 400 519 450 530C500 541 550 529 600 520C650 511 700 505 750 507C800 509 850 519 875 524L900 529L900 455L875 453C850 451 800 447 750 455C700 463 650 483 600 488C550 493 500 483 450 472C400 461 350 449 300 440C250 431 200 425 150 418C100 411 50 403 25 399L0 395Z" fill="#ffffff"></path><path d="M0 463L25 468C50 473 100 483 150 487C200 491 250 489 300 501C350 513 400 539 450 553C500 567 550 569 600 562C650 555 700 539 750 535C800 531 850 539 875 543L900 547L900 527L875 522C850 517 800 507 750 505C700 503 650 509 600 518C550 527 500 539 450 528C400 517 350 483 300 468C250 453 200 457 150 456C100 455 50 449 25 446L0 443Z" fill="#fafafa"></path><path d="M0 601L25 601C50 601 100 601 150 601C200 601 250 601 300 601C350 601 400 601 450 601C500 601 550 601 600 601C650 601 700 601 750 601C800 601 850 601 875 601L900 601L900 545L875 541C850 537 800 529 750 533C700 537 650 553 600 560C550 567 500 565 450 551C400 537 350 511 300 499C250 487 200 489 150 485C100 481 50 471 25 466L0 461Z" fill="#eeeeee"></path></svg>